<svg width="145" height="42" viewBox="0 0 145 42" fill="none" xmlns="http://www.w3.org/2000/svg">
<rect width="145" height="41.7695" rx="11.9342" fill="white"/>
<rect x="0.596708" y="0.596708" width="143.807" height="40.5761" rx="11.3374" stroke="black" stroke-opacity="0.12" stroke-width="1.19342"/>
<g clip-path="url(#clip0_114_467)">
<path d="M45.9402 13.1149C45.0184 13.5245 44.0285 13.801 42.9877 13.9239C44.0489 13.288 44.8642 12.2808 45.2487 11.081C44.2548 11.6692 43.1553 12.0984 41.9844 12.3278C41.0462 11.3293 39.7101 10.7051 38.2306 10.7051C35.3916 10.7051 33.0914 13.0061 33.0914 15.8451C33.0914 16.2476 33.136 16.6408 33.2238 17.0167C28.9515 16.8021 25.1641 14.7557 22.6281 11.6457C22.1864 12.4054 21.9327 13.288 21.9327 14.2302C21.9327 16.0142 22.8404 17.5869 24.2188 18.5095C23.3768 18.482 22.5843 18.2518 21.8912 17.8665C21.8904 17.8876 21.8904 17.9103 21.8904 17.9307C21.8904 20.422 23.6619 22.4998 26.0138 22.972C25.5831 23.0887 25.1288 23.1521 24.6597 23.1521C24.3276 23.1521 24.0065 23.12 23.6933 23.0605C24.3464 25.1015 26.2456 26.5879 28.4941 26.6302C26.7359 28.0086 24.5195 28.8318 22.1112 28.8318C21.6961 28.8318 21.2865 28.8075 20.8848 28.7597C23.1591 30.2164 25.8611 31.0677 28.7643 31.0677C38.2189 31.0677 43.3902 23.2352 43.3902 16.4419C43.3902 16.2194 43.3839 15.997 43.3745 15.7762C44.3794 15.0517 45.2503 14.1471 45.9402 13.1149Z" fill="#55ACEE"/>
</g>
<path d="M63.9628 19.6419V18.0603H72.2726V19.6419H69.0535V28.4756H67.182V19.6419H63.9628ZM74.5103 28.4756L72.3031 20.6641H74.1797L75.5528 26.1566H75.624L77.0276 20.6641H78.8839L80.2875 26.126H80.3638L81.7165 20.6641H83.5982L81.386 28.4756H79.4687L78.0041 23.1968H77.8973L76.4326 28.4756H74.5103ZM84.8836 28.4756V20.6641H86.7246V28.4756H84.8836ZM85.8092 19.5555C85.5176 19.5555 85.2667 19.4589 85.0565 19.2656C84.8463 19.069 84.7412 18.8333 84.7412 18.5587C84.7412 18.2807 84.8463 18.0451 85.0565 17.8518C85.2667 17.6552 85.5176 17.5568 85.8092 17.5568C86.1041 17.5568 86.355 17.6552 86.5618 17.8518C86.772 18.0451 86.8771 18.2807 86.8771 18.5587C86.8771 18.8333 86.772 19.069 86.5618 19.2656C86.355 19.4589 86.1041 19.5555 85.8092 19.5555ZM92.5183 20.6641V22.0881H88.0277V20.6641H92.5183ZM89.1364 18.7926H90.9774V26.126C90.9774 26.3735 91.0147 26.5634 91.0893 26.6956C91.1672 26.8245 91.269 26.9126 91.3944 26.9601C91.5198 27.0075 91.6588 27.0313 91.8114 27.0313C91.9267 27.0313 92.0318 27.0228 92.1267 27.0059C92.225 26.9889 92.2996 26.9736 92.3505 26.9601L92.6607 28.3993C92.5624 28.4332 92.4217 28.4705 92.2386 28.5112C92.0589 28.5519 91.8385 28.5756 91.5775 28.5824C91.1164 28.5959 90.7011 28.5264 90.3315 28.3739C89.962 28.2179 89.6687 27.9772 89.4517 27.6517C89.2381 27.3262 89.133 26.9194 89.1364 26.4312V18.7926ZM97.9586 20.6641V22.0881H93.468V20.6641H97.9586ZM94.5767 18.7926H96.4177V26.126C96.4177 26.3735 96.455 26.5634 96.5296 26.6956C96.6075 26.8245 96.7093 26.9126 96.8347 26.9601C96.9601 27.0075 97.0991 27.0313 97.2517 27.0313C97.367 27.0313 97.4721 27.0228 97.567 27.0059C97.6653 26.9889 97.7399 26.9736 97.7908 26.9601L98.101 28.3993C98.0027 28.4332 97.862 28.4705 97.6789 28.5112C97.4992 28.5519 97.2788 28.5756 97.0178 28.5824C96.5567 28.5959 96.1414 28.5264 95.7718 28.3739C95.4023 28.2179 95.109 27.9772 94.892 27.6517C94.6784 27.3262 94.5733 26.9194 94.5767 26.4312V18.7926ZM102.873 28.6282C102.089 28.6282 101.413 28.4654 100.843 28.1399C100.277 27.8111 99.8415 27.3466 99.5364 26.7465C99.2313 26.143 99.0787 25.4327 99.0787 24.6156C99.0787 23.8121 99.2313 23.1069 99.5364 22.5C99.8449 21.8898 100.276 21.4151 100.828 21.0761C101.381 20.7336 102.03 20.5624 102.776 20.5624C103.257 20.5624 103.712 20.6404 104.139 20.7964C104.569 20.9489 104.949 21.1863 105.278 21.5083C105.61 21.8304 105.871 22.2407 106.061 22.7391C106.251 23.2341 106.346 23.824 106.346 24.5088V25.0733H99.9433V23.8325H104.581C104.578 23.4799 104.502 23.1662 104.352 22.8916C104.203 22.6136 103.995 22.3949 103.727 22.2356C103.462 22.0762 103.154 21.9966 102.801 21.9966C102.425 21.9966 102.094 22.0881 101.81 22.2712C101.525 22.4509 101.303 22.6882 101.143 22.9832C100.987 23.2747 100.908 23.5951 100.904 23.9443V25.0276C100.904 25.4819 100.987 25.8718 101.154 26.1972C101.32 26.5193 101.552 26.7668 101.85 26.9397C102.149 27.1093 102.498 27.194 102.898 27.194C103.166 27.194 103.408 27.1567 103.625 27.0821C103.842 27.0042 104.03 26.8906 104.19 26.7414C104.349 26.5922 104.469 26.4075 104.551 26.1871L106.27 26.3803C106.161 26.8346 105.954 27.2313 105.649 27.5704C105.348 27.906 104.961 28.1671 104.49 28.3535C104.018 28.5366 103.479 28.6282 102.873 28.6282ZM107.903 28.4756V20.6641H109.688V21.966H109.77C109.912 21.5151 110.156 21.1676 110.502 20.9235C110.851 20.676 111.25 20.5523 111.697 20.5523C111.799 20.5523 111.913 20.5573 112.038 20.5675C112.167 20.5743 112.274 20.5862 112.358 20.6031V22.2966C112.28 22.2695 112.157 22.2458 111.987 22.2254C111.821 22.2017 111.66 22.1898 111.504 22.1898C111.168 22.1898 110.867 22.2627 110.599 22.4085C110.334 22.5509 110.126 22.7492 109.973 23.0035C109.821 23.2578 109.744 23.5511 109.744 23.8833V28.4756H107.903Z" fill="black" fill-opacity="0.46"/>
<defs>
<clipPath id="clip0_114_467">
<rect width="25.0617" height="25.0617" fill="white" transform="translate(20.8848 8.35352)"/>
</clipPath>
</defs>
</svg>
