<svg width="190" height="52" viewBox="0 0 190 52" fill="none" xmlns="http://www.w3.org/2000/svg">
<g clip-path="url(#clip0_114_233)">
<path d="M32.7417 16.9933C32.7417 21.571 31.5214 25.2331 29.0808 27.9797C26.5627 30.8048 23.0771 32.2174 18.6189 32.2174C17.5224 32.2174 15.8661 32.1729 13.6473 32.0866C11.4285 31.9976 9.76187 31.9558 8.64732 31.9558C8.03328 31.9558 7.72626 32.356 7.72626 33.1538C7.72626 34.1871 7.78818 35.7357 7.9146 37.7995C8.03844 39.866 8.10294 41.4146 8.10294 42.4453C8.10294 42.7775 7.91976 42.9423 7.55599 42.9423C7.15351 42.9423 6.54205 42.8978 5.72678 42.8115C4.90893 42.7251 4.30005 42.6807 3.89758 42.6807C3.55186 42.6807 3.0436 42.7094 2.37023 42.7696C1.69685 42.8272 1.19892 42.8586 0.871259 42.8586C0.391383 42.8586 0.151445 42.5577 0.151445 41.9535C0.151445 39.8294 0.241745 36.625 0.424923 32.3403C0.608102 28.0556 0.698401 24.8407 0.698401 22.6958C0.693241 16.614 0.471363 10.0875 0.0301862 3.11368L-0.000773563 2.67684C-0.0214134 2.24784 0.228845 2.03334 0.74742 2.03334C1.78457 2.03334 3.34546 2.04381 5.43008 2.06212C7.51471 2.08305 9.08591 2.09089 10.1411 2.09089C11.0441 2.09089 12.3986 2.05166 14.2046 1.97318C16.0106 1.89471 17.3651 1.85547 18.2681 1.85547C22.5147 1.85547 26.0028 3.31772 28.7299 6.23959C31.4002 9.10392 32.7366 12.6876 32.7366 16.9933H32.7417ZM25.4791 17.4327C25.4791 14.5108 24.6999 12.1723 23.1442 10.4197C21.5292 8.58861 19.3001 7.67307 16.4569 7.67307C15.572 7.67307 13.9982 7.75154 11.7304 7.90588C9.13751 8.06283 7.80108 8.21716 7.72368 8.37411C7.58953 8.60692 7.52245 11.9578 7.52245 18.4267C7.52245 19.2455 7.54567 20.4723 7.59469 22.1098C7.64113 23.7473 7.66692 24.9741 7.66692 25.7929C7.66692 25.9682 7.87848 26.1042 8.3016 26.201C9.35681 26.4155 12.2877 26.5227 17.0916 26.5227C19.7825 26.5227 21.8749 25.6752 23.3738 23.9801C24.7773 22.3636 25.4765 20.182 25.4765 17.4353L25.4791 17.4327Z" fill="#0B5B4D"/>
<path d="M104.933 28.8009C104.933 32.7351 103.703 36.1566 101.244 39.0576C98.669 42.1155 95.4698 43.6458 91.6463 43.6458C89.2675 43.6458 87.1855 42.8976 85.4002 41.404C85.395 41.3988 85.3898 41.3935 85.3821 41.3883C84.6674 40.716 83.9554 40.0359 83.2407 39.3479C83.0704 39.1858 82.7892 39.2747 82.7479 39.5075C82.7454 39.5232 82.7428 39.5389 82.7402 39.5546C82.7196 39.6723 82.7118 40.7631 82.7118 42.827L82.6834 51.0668C82.6834 51.6894 82.4616 52.0007 82.0204 52.0007C79.0611 52.0007 77.3119 51.9615 76.7753 51.883C76.3341 51.8254 76.1122 51.5717 76.1122 51.1244C76.1122 48.6315 76.1303 44.8909 76.169 39.9025C76.2077 34.9167 76.2257 31.1761 76.2257 28.6806C76.2257 24.1029 75.9368 19.8077 75.3614 15.7924C75.3227 15.5596 75.3047 15.4027 75.3047 15.3242C75.3047 15.1097 75.4001 14.9737 75.5936 14.9161C76.3212 14.8769 77.3867 14.7696 78.7851 14.597C78.7902 14.597 78.798 14.597 78.8031 14.5944C80.6814 14.2439 81.734 14.0712 81.9636 14.0712C82.2913 14.0712 82.5002 14.6545 82.5983 15.8238C82.655 16.6033 82.7041 17.3724 82.7428 18.1336C82.7428 18.1336 82.7428 18.1362 82.7428 18.1388C82.7428 18.3952 83.0653 18.5155 83.2459 18.3324C83.2871 18.2905 83.331 18.2435 83.3774 18.1911C86.0684 15.4053 88.7851 14.0137 91.5328 14.0137C95.3382 14.0137 98.5451 15.523 101.159 18.5443C103.677 21.4478 104.933 24.8667 104.933 28.8009ZM98.1891 28.6832C98.1891 26.3447 97.4693 24.2913 96.0271 22.5177C94.5101 20.6291 92.6164 19.6822 90.3485 19.6822C88.0807 19.6822 86.2954 20.6579 84.8712 22.604C83.5632 24.3566 82.9105 26.4022 82.9105 28.7408C82.9105 31.0793 83.5838 33.1824 84.928 34.9351C86.4063 36.8237 88.2897 37.7706 90.5782 37.7706C92.8666 37.7706 94.6133 36.7871 96.1122 34.82C97.4951 32.9889 98.1865 30.9433 98.1865 28.6832H98.1891Z" fill="#0B5B4D"/>
<path d="M121.422 7.1013C120.511 7.02021 119.654 6.54151 118.741 6.38456C117.647 6.19622 116.486 6.51536 115.619 7.21116C114.716 7.93575 114.528 9.3483 114.365 10.4417C114.151 11.8804 114.097 13.3427 114.089 14.7944C114.089 14.9592 114.221 15.0953 114.383 15.0953C115.016 15.1005 115.919 15.1188 117.087 15.1528C118.452 15.1921 119.479 15.2104 120.17 15.2104C120.632 15.2104 120.862 15.3856 120.862 15.7361C120.862 16.2829 120.88 17.0938 120.919 18.1767C120.957 19.257 120.975 20.0627 120.975 20.5885C120.975 20.9599 120.782 21.1431 120.4 21.1431C119.727 21.1431 118.71 21.1091 117.345 21.041C116.174 20.9835 115.263 20.9495 114.616 20.9416C114.451 20.9416 114.319 21.075 114.319 21.2398V29.6759C114.319 31.0387 114.368 33.1052 114.463 35.8702C114.559 38.6377 114.608 40.7016 114.608 42.0644C114.608 42.5902 114.414 42.8544 114.033 42.8544H108.759C108.259 42.8544 108.011 42.5536 108.011 41.9493V21.8441C108.011 21.3183 107.425 21.0646 106.254 21.0855C104.987 21.1064 104.314 21.0567 104.236 20.939C104.18 20.8815 104.149 20.5205 104.149 19.8587C104.149 19.4297 104.131 18.7914 104.092 17.9439C104.053 17.0964 104.035 16.4581 104.035 16.0291C104.035 15.6367 105.157 15.3699 107.405 15.2287C107.565 15.2182 107.688 15.0796 107.683 14.9174C107.634 13.8057 107.611 12.8901 107.611 12.1734C107.611 10.3449 107.755 8.46415 108.344 6.72462C108.537 6.15437 108.733 5.59458 109.079 5.10281C109.487 4.5221 109.948 3.978 110.452 3.481C111.45 2.49483 112.619 1.68654 113.891 1.11629C115.17 0.540807 116.641 0.148433 118.034 0.051647C119.458 -0.0477544 120.97 -0.0582177 122.278 0.608818C123.15 1.05351 123.883 1.79902 124.249 2.71717C124.616 3.63533 124.598 4.71567 124.133 5.58674C123.669 6.45781 122.753 7.08037 121.778 7.11438C121.662 7.11961 121.545 7.11438 121.432 7.10392L121.422 7.1013Z" fill="#0B5B4D"/>
<path d="M138.924 15.4542C139.251 16.668 138.924 18.0674 138.036 18.9594C137.334 19.6631 136.375 20.0345 135.423 20.3013C134.471 20.5682 133.488 20.7487 132.59 21.162C131.393 21.7113 130.384 22.6713 129.767 23.8458C128.905 25.4833 129.117 27.194 129.117 28.9728V32.1877C129.117 33.2785 129.161 34.9343 129.246 37.1551C129.331 39.3759 129.375 41.0318 129.375 42.1226C129.375 42.6483 129.153 42.9125 128.712 42.9125C128.116 42.9125 127.213 42.9021 126.003 42.8838C124.793 42.8655 123.89 42.855 123.294 42.855C122.853 42.855 122.631 42.6117 122.631 42.1252C122.631 40.5478 122.654 38.1701 122.703 34.9944C122.752 31.8188 122.775 29.4332 122.775 27.8349C122.775 23.0244 122.334 19.1556 121.449 16.2337C121.411 16.0768 121.393 15.9617 121.393 15.8832C121.393 15.6635 121.504 15.5039 121.725 15.4045C121.754 15.3914 121.782 15.3862 121.813 15.381C122.285 15.3287 122.757 15.2737 123.23 15.2188C124.339 15.088 125.438 14.9624 126.522 14.6826C126.834 14.6015 127.164 14.5125 127.471 14.6041C127.84 14.7139 128.098 15.0671 128.211 15.4385C128.325 15.81 128.317 16.2076 128.325 16.5973C128.33 16.8537 128.343 17.1153 128.4 17.3664C128.439 17.5416 128.511 17.8058 128.691 17.8896C128.882 17.9785 129.174 17.73 129.331 17.6254C130.234 17.0368 130.92 16.1788 131.612 15.3653C132.456 14.3739 133.402 13.3694 134.649 13.0241C136.124 12.6134 137.832 13.3249 138.598 14.6695C138.74 14.9154 138.846 15.1822 138.921 15.4542H138.924Z" fill="#0B5B4D"/>
<path d="M51.3298 15.4542C51.6574 16.668 51.3298 18.0674 50.4423 18.9594C49.7405 19.6631 48.7808 20.0345 47.8288 20.3013C46.8767 20.5682 45.8938 20.7487 44.9959 21.162C43.7988 21.7113 42.7901 22.6713 42.1734 23.8458C41.3117 25.4833 41.5233 27.194 41.5233 28.9728V32.1877C41.5233 33.2785 41.5671 34.9343 41.6523 37.1551C41.7374 39.3759 41.7813 41.0318 41.7813 42.1226C41.7813 42.6483 41.5594 42.9125 41.1182 42.9125C40.5223 42.9125 39.6193 42.9021 38.4092 42.8838C37.1992 42.8655 36.2962 42.855 35.7003 42.855C35.2591 42.855 35.0372 42.6117 35.0372 42.1252C35.0372 40.5478 35.0604 38.1701 35.1095 34.9944C35.1585 31.8188 35.1817 29.4332 35.1817 27.8349C35.1817 23.0244 34.7405 19.1556 33.8556 16.2337C33.8169 16.0768 33.7988 15.9617 33.7988 15.8832C33.7988 15.6635 33.9098 15.5039 34.1316 15.4045C34.16 15.3914 34.1884 15.3862 34.2194 15.381C34.6915 15.3287 35.1636 15.2737 35.6358 15.2188C36.7452 15.088 37.8442 14.9624 38.9278 14.6826C39.24 14.6015 39.5702 14.5125 39.8773 14.6041C40.2462 14.7139 40.5042 15.0671 40.6177 15.4385C40.7312 15.81 40.7235 16.2076 40.7312 16.5973C40.7364 16.8537 40.7493 17.1153 40.8061 17.3664C40.8448 17.5416 40.917 17.8058 41.0976 17.8896C41.2885 17.9785 41.58 17.73 41.7374 17.6254C42.6404 17.0368 43.3267 16.1788 44.0181 15.3653C44.8618 14.3739 45.8086 13.3694 47.0548 13.0241C48.5305 12.6134 50.2385 13.3249 51.0047 14.6695C51.1466 14.9154 51.2524 15.1822 51.3272 15.4542H51.3298Z" fill="#0B5B4D"/>
<path d="M161.974 34.5105C161.837 33.6682 161.207 32.8599 160.369 32.7605C159.806 32.6925 159.244 32.9515 158.8 33.3072C158.354 33.6656 157.998 34.1207 157.608 34.5419C157.544 34.6125 157.479 34.6805 157.41 34.7485C156.073 36.1035 154.332 37.0426 152.479 37.4219C150.408 37.8483 148.336 37.673 146.427 36.7104C144.75 35.8629 143.62 34.6962 143.039 33.2052C142.972 33.0378 143.067 32.8468 143.24 32.8024C153.792 30.0767 159.443 28.4941 160.199 28.0442C160.653 27.7643 160.996 27.4242 161.225 27.024C161.568 26.4354 161.667 25.7161 161.519 24.8712C160.877 21.1855 159.169 18.2688 156.398 16.1134C153.553 13.8926 150.353 13.1 146.793 13.7356C142.972 14.4183 140.01 16.5189 137.91 20.0398C135.924 23.422 135.273 27.0894 135.96 31.0419C136.731 35.4731 138.651 38.7848 141.726 40.9742C144.799 43.1637 148.532 43.8673 152.92 43.0826C154.711 42.7608 156.556 42.2455 158.049 41.173C159.528 40.1084 160.735 38.654 161.491 36.9825C161.845 36.2082 162.105 35.3476 161.971 34.5079L161.974 34.5105ZM141.891 27.4373C141.584 25.6716 141.984 23.9583 143.091 22.2972C144.197 20.6335 145.619 19.6474 147.361 19.3361C148.911 19.0588 150.413 19.4224 151.868 20.4295C153.32 21.4366 154.187 22.7341 154.463 24.3271C154.502 24.5573 153.989 24.845 152.918 25.1955C149.12 26.4668 145.82 27.3536 143.021 27.8558C142.34 27.9788 141.963 27.8375 141.894 27.4347L141.891 27.4373Z" fill="#0B5B4D"/>
<path d="M74.6267 24.877C74.8743 26.2974 74.4332 27.3542 73.3057 28.05C72.5524 28.4973 66.8996 30.0852 56.3501 32.8082C56.1772 32.8527 56.0818 33.0436 56.1463 33.2111C56.7268 34.7021 57.8568 35.8687 59.5338 36.7137C61.443 37.6763 63.5147 37.8515 65.5864 37.4252C67.4388 37.0459 69.1777 36.1042 70.5167 34.7518C70.5838 34.6838 70.6483 34.6158 70.7154 34.5451C71.105 34.1266 71.461 33.6688 71.9074 33.3105C72.3537 32.9521 72.9135 32.6957 73.4786 32.7638C74.3145 32.8632 74.944 33.6688 75.0807 34.5137C75.2175 35.3587 74.9543 36.214 74.6034 36.9909C73.8449 38.6624 72.6401 40.1195 71.1592 41.1815C69.6783 42.2435 67.8207 42.7719 66.0302 43.091C61.639 43.8758 57.9084 43.1747 54.8356 40.9827C51.7629 38.7932 49.8408 35.4816 49.0694 31.0504C48.3831 27.0979 49.0307 23.4305 51.0198 20.0482C53.1199 16.5273 56.0818 14.4268 59.9027 13.7415C63.4605 13.1058 66.6623 13.8984 69.5054 16.1193C72.2789 18.2747 73.9868 21.194 74.6292 24.877H74.6267ZM67.5653 24.3277C67.2892 22.7347 66.4223 21.4372 64.9698 20.4301C63.5173 19.423 62.0131 19.0594 60.4626 19.3367C58.7211 19.648 57.2969 20.6342 56.1927 22.2952C55.0859 23.9563 54.686 25.6696 54.993 27.4353C55.0627 27.8382 55.4393 27.9794 56.1205 27.8565C58.9197 27.3568 62.2195 26.4701 66.0173 25.1962C67.088 24.8457 67.6039 24.5553 67.5627 24.3251L67.5653 24.3277Z" fill="#0B5B4D"/>
<path d="M161.523 24.877C161.373 25.5806 161.275 26.3 161.229 27.0298C161.572 26.4412 161.67 25.7219 161.523 24.877Z" fill="#0B5B4D"/>
<path d="M189.154 31.5886C188.468 31.0602 187.483 31.068 186.696 31.429C186.523 31.5075 186.358 31.6017 186.198 31.7089C185.401 32.2425 184.926 33.0639 184.263 33.7309C183.6 34.398 182.875 35.0075 182.093 35.5333C180.586 36.5456 178.884 37.2257 177.103 37.5422C175.362 37.8535 173.636 37.5788 171.928 36.7182C170.251 35.8707 169.118 34.704 168.538 33.213C168.473 33.0456 168.566 32.8546 168.742 32.8102C179.294 30.0871 184.944 28.5019 185.697 28.052C186.825 27.3562 187.266 26.2994 187.018 24.879C186.378 21.1959 184.67 18.2766 181.897 16.1212C179.051 13.9004 175.852 13.1078 172.294 13.7434C168.471 14.4262 165.509 16.5267 163.409 20.0476C162.501 21.5961 161.871 23.2022 161.523 24.8685C161.67 25.7187 161.572 26.4354 161.229 27.0266C161.144 28.3345 161.221 29.6738 161.461 31.0497C162.232 35.4809 164.154 38.7926 167.227 40.982C170.303 43.1741 174.033 43.8751 178.424 43.0904C182.116 42.4312 185.057 40.7937 187.243 38.1805C187.818 37.6207 188.347 37.0138 188.824 36.3677C189.351 35.6536 189.823 34.8688 189.965 33.9899C190.109 33.111 189.859 32.1248 189.157 31.5834L189.154 31.5886ZM167.387 27.4425C167.08 25.6768 167.48 23.9635 168.587 22.3024C169.694 20.6387 171.115 19.6552 172.857 19.3413C174.407 19.064 175.909 19.4276 177.364 20.4347C178.816 21.4418 179.683 22.7392 179.959 24.3323C179.998 24.5625 179.485 24.8528 178.414 25.2007C174.616 26.472 171.316 27.3588 168.517 27.861C167.836 27.984 167.459 27.8427 167.39 27.4399L167.387 27.4425Z" fill="#0B5B4D"/>
</g>
<defs>
<clipPath id="clip0_114_233">
<rect width="190" height="52" fill="white"/>
</clipPath>
</defs>
</svg>
