<svg width="30" height="30" viewBox="0 0 30 30" fill="none" xmlns="http://www.w3.org/2000/svg">
<path d="M26.513 19.8641C25.7178 21.7447 24.474 23.4018 22.8904 24.6907C21.3067 25.9795 19.4315 26.8608 17.4286 27.2575C15.4256 27.6542 13.356 27.5542 11.4007 26.9663C9.44534 26.3784 7.66379 25.3204 6.21178 23.8849C4.75977 22.4494 3.68152 20.68 3.0713 18.7315C2.46107 16.783 2.33746 14.7147 2.71125 12.7074C3.08505 10.7 3.94487 8.81485 5.21556 7.2166C6.48625 5.61835 8.12911 4.35571 10.0005 3.53906" stroke="#54BD95" stroke-width="2" stroke-linecap="round" stroke-linejoin="round"/>
<path d="M27.5 15C27.5 13.3585 27.1767 11.733 26.5485 10.2165C25.9203 8.69989 24.9996 7.3219 23.8388 6.16117C22.6781 5.00043 21.3001 4.07969 19.7835 3.45151C18.267 2.82332 16.6415 2.5 15 2.5V15H27.5Z" stroke="#54BD95" stroke-width="2" stroke-linecap="round" stroke-linejoin="round"/>
</svg>
