<svg width="122" height="54" viewBox="0 0 122 54" fill="none" xmlns="http://www.w3.org/2000/svg">
<path d="M101.979 12.4824L102.588 11.5421L101.979 12.4824ZM57.082 26.7243L56.9442 27.836L57.082 26.7243ZM1.9903 21.4967C1.37163 21.4915 0.874325 20.9858 0.879545 20.3671L0.964547 10.2853C0.96976 9.66662 1.47553 9.16931 2.09419 9.17453C2.71286 9.17975 3.21017 9.68551 3.20495 10.3042L3.12939 19.2658L12.091 19.3413C12.7097 19.3466 13.207 19.8523 13.2018 20.471C13.1965 21.0897 12.6908 21.587 12.0721 21.5817L1.9903 21.4967ZM4.54238 16.4407C5.00181 16.0263 5.71016 16.0629 6.12454 16.5223C6.53892 16.9817 6.5024 17.6901 6.04298 18.1044L5.29267 17.2726L4.54238 16.4407ZM12.8891 12.5171C12.3893 12.8819 11.6885 12.7725 11.3237 12.2728C10.959 11.7731 11.0684 11.0723 11.5681 10.7075L12.2286 11.6123L12.8891 12.5171ZM19.2313 5.83875C19.7756 5.54475 20.4553 5.74772 20.7493 6.29209C21.0433 6.83647 20.8403 7.5161 20.2959 7.81011L19.7636 6.82443L19.2313 5.83875ZM28.3223 4.32962C27.7339 4.52087 27.1019 4.19892 26.9107 3.61052C26.7194 3.02213 27.0414 2.39011 27.6298 2.19886L27.976 3.26424L28.3223 4.32962ZM36.6413 0.367676C37.2581 0.320007 37.7968 0.781424 37.8445 1.39828C37.8922 2.01513 37.4307 2.55383 36.8139 2.6015L36.7276 1.48459L36.6413 0.367676ZM45.396 3.1549C44.7914 3.02378 44.4075 2.42734 44.5386 1.8227C44.6697 1.21806 45.2662 0.834195 45.8708 0.965314L45.6334 2.06011L45.396 3.1549ZM54.5045 4.33626C55.0372 4.65095 55.2139 5.33788 54.8993 5.87056C54.5846 6.40324 53.8976 6.57996 53.365 6.26527L53.9348 5.30076L54.5045 4.33626ZM59.8885 11.7778C59.4928 11.3022 59.5576 10.5959 60.0333 10.2002C60.5089 9.80453 61.2152 9.86933 61.6109 10.345L60.7497 11.0614L59.8885 11.7778ZM65.9053 18.7277C66.0277 19.3341 65.6353 19.925 65.0288 20.0474C64.4223 20.1698 63.8315 19.7774 63.7091 19.1709L64.8072 18.9493L65.9053 18.7277ZM61.1552 25.3311C61.737 25.1208 62.3792 25.4219 62.5896 26.0037C62.7999 26.5856 62.4988 27.2278 61.917 27.4381L61.5361 26.3846L61.1552 25.3311ZM51.9593 24.2044C51.8358 23.5982 52.2271 23.0066 52.8333 22.8831C53.4395 22.7596 54.0311 23.1509 54.1547 23.7571L53.057 23.9808L51.9593 24.2044ZM58.9633 16.242C58.491 16.6417 57.7842 16.5829 57.3845 16.1107C56.9847 15.6384 57.0435 14.9316 57.5158 14.5319L58.2395 15.3869L58.9633 16.242ZM66.6509 8.94347C67.218 8.69608 67.8782 8.95524 68.1256 9.52231C68.373 10.0894 68.1139 10.7497 67.5468 10.997L67.0989 9.97026L66.6509 8.94347ZM77.2451 8.19217C76.6333 8.28408 76.0628 7.8626 75.9709 7.25078C75.8789 6.63895 76.3004 6.06846 76.9122 5.97654L77.0787 7.08435L77.2451 8.19217ZM87.6174 5.89474C88.2302 5.97999 88.6578 6.54586 88.5726 7.15865C88.4873 7.77144 87.9215 8.1991 87.3087 8.11386L87.463 7.0043L87.6174 5.89474ZM96.9427 10.9678C96.3819 10.7066 96.1389 10.0402 96.4001 9.47935C96.6613 8.9185 97.3277 8.67558 97.8886 8.93678L97.4157 9.95229L96.9427 10.9678ZM105.934 13.8315C106.435 14.1949 106.546 14.8954 106.183 15.3962C105.82 15.8969 105.119 16.0083 104.618 15.645L105.276 14.7383L105.934 13.8315ZM110.59 20.6675C110.152 20.2302 110.152 19.521 110.589 19.0832C111.026 18.6455 111.735 18.6452 112.173 19.0824L111.381 19.875L110.59 20.6675ZM117.272 25.5585C117.585 26.092 117.406 26.7784 116.873 27.0917C116.339 27.405 115.653 27.2265 115.34 26.693L116.306 26.1257L117.272 25.5585ZM118.111 33.7675C117.977 33.1635 118.358 32.5653 118.962 32.4313C119.566 32.2973 120.164 32.6783 120.298 33.2823L119.204 33.5249L118.111 33.7675ZM121.082 41.4602C121.079 42.0789 120.575 42.578 119.956 42.575C119.337 42.5721 118.838 42.0681 118.841 41.4494L119.961 41.4548L121.082 41.4602ZM118.357 49.3033C118.419 48.6877 118.968 48.239 119.584 48.3011C120.199 48.3631 120.648 48.9125 120.586 49.528L119.471 49.4157L118.357 49.3033ZM1.99975 20.3765L1.21433 19.5778C2.33283 18.478 3.44232 17.4329 4.54238 16.4407L5.29267 17.2726L6.04298 18.1044C4.96756 19.0744 3.88147 20.0973 2.78517 21.1753L1.99975 20.3765ZM12.2286 11.6123L11.5681 10.7075C14.1871 8.79571 16.7435 7.1823 19.2313 5.83875L19.7636 6.82443L20.2959 7.81011C17.9033 9.10228 15.4322 10.6607 12.8891 12.5171L12.2286 11.6123ZM27.976 3.26424L27.6298 2.19886C30.7826 1.17411 33.7923 0.587832 36.6413 0.367676L36.7276 1.48459L36.8139 2.6015C34.1499 2.80736 31.3145 3.35707 28.3223 4.32962L27.976 3.26424ZM45.6334 2.06011L45.8708 0.965314C49.0936 1.66418 51.9849 2.84773 54.5045 4.33626L53.9348 5.30076L53.365 6.26527C51.0443 4.89428 48.3766 3.80124 45.396 3.1549L45.6334 2.06011ZM60.7497 11.0614L61.6109 10.345C63.8716 13.0624 65.3578 16.0147 65.9053 18.7277L64.8072 18.9493L63.7091 19.1709C63.2496 16.8938 61.9635 14.272 59.8885 11.7778L60.7497 11.0614ZM61.5361 26.3846L61.917 27.4381C60.5365 27.9372 58.8711 28.0748 56.9442 27.836L57.082 26.7243L57.2197 25.6126C58.8981 25.8205 60.191 25.6797 61.1552 25.3311L61.5361 26.3846ZM57.082 26.7243L56.9442 27.836C54.2631 27.5039 52.3885 26.311 51.9593 24.2044L53.057 23.9808L54.1547 23.7571C54.3054 24.4971 54.9793 25.335 57.2197 25.6126L57.082 26.7243ZM58.2395 15.3869L57.5158 14.5319C59.945 12.4757 63.0622 10.5091 66.6509 8.94347L67.0989 9.97026L67.5468 10.997C64.1455 12.4809 61.2164 14.3349 58.9633 16.242L58.2395 15.3869ZM77.0787 7.08435L76.9122 5.97654C80.3215 5.46437 83.9269 5.38136 87.6174 5.89474L87.463 7.0043L87.3087 8.11386C83.8489 7.63257 80.4603 7.70915 77.2451 8.19217L77.0787 7.08435ZM97.4157 9.95229L97.8886 8.93678C99.4633 9.67015 101.033 10.5347 102.588 11.5421L101.979 12.4824L101.37 13.4227C99.9011 12.4713 98.4227 11.657 96.9427 10.9678L97.4157 9.95229ZM101.979 12.4824L102.588 11.5421C103.773 12.3092 104.887 13.0718 105.934 13.8315L105.276 14.7383L104.618 15.645C103.606 14.9102 102.525 14.17 101.37 13.4227L101.979 12.4824ZM111.381 19.875L112.173 19.0824C114.308 21.2152 115.981 23.3609 117.272 25.5585L116.306 26.1257L115.34 26.693C114.157 24.6784 112.606 22.6817 110.59 20.6675L111.381 19.875ZM119.204 33.5249L120.298 33.2823C120.881 35.9114 121.095 38.6237 121.082 41.4602L119.961 41.4548L118.841 41.4494C118.854 38.7301 118.649 36.1916 118.111 33.7675L119.204 33.5249ZM119.471 49.4157L120.586 49.528C120.455 50.824 120.306 52.1529 120.148 53.5162L119.036 53.3874L117.923 53.2585C118.08 51.8994 118.228 50.5831 118.357 49.3033L119.471 49.4157Z" fill="#0B5B4D" fill-opacity="0.75"/>
</svg>
